<svg xmlns="http://www.w3.org/2000/svg" xmlns:xlink="http://www.w3.org/1999/xlink" width="452" height="458" viewBox="0 0 452 458">
  <defs>
    <linearGradient id="icon-c" x1="0%" y1="0%" y2="100%">
      <stop offset="0%" stop-color="#4031C5"/>
      <stop offset="100%" stop-color="#F5BAFF"/>
    </linearGradient>
    <path id="icon-b" d="M137.647059,286.647059 C125.392157,277.333333 110.196078,271.941176 93.5294118,271.941176 C52.8431373,271.941176 20,304.784314 20,345.470588 C20,386.156863 52.8431373,419 93.5294118,419 C134.215686,419 167.058824,386.156863 167.058824,345.470588 C167.058824,344 167.058824,342.039216 166.568627,340.568627 L167.058824,340.568627 L167.058824,189.098039 L382.745098,135.666667 L382.745098,187.627451 C370.490196,178.313725 355.294118,172.921569 338.627451,172.921569 C297.941176,172.921569 265.098039,205.764706 265.098039,246.45098 C265.098039,287.137255 297.941176,319.980392 338.627451,319.980392 C379.313725,319.980392 412.156863,287.137255 412.156863,246.45098 L412.156863,111.156863 L412.156863,104.784314 L412.156863,41.5490196 C412.156863,28.8039216 401.862745,19 389.117647,19 L387.647059,19 L158.235294,75.372549 C146.470588,76.3529412 137.647059,86.1568627 137.647059,97.9215686 L137.647059,167.529412 C137.647059,168.019608 137.647059,168.019608 137.647059,168.019608 L137.647059,286.647059 Z"/>
    <filter id="icon-a" width="125.5%" height="125%" x="-10.2%" filterUnits="objectBoundingBox">
      <feOffset dx="10" dy="10" in="SourceAlpha" result="shadowOffsetOuter1"/>
      <feGaussianBlur in="shadowOffsetOuter1" result="shadowBlurOuter1" stdDeviation="15"/>
      <feColorMatrix in="shadowBlurOuter1" values="0 0 0 0 0   0 0 0 0 0   0 0 0 0 0  0 0 0 0.05 0"/>
    </filter>
  </defs>
  <g fill="none">
    <use fill="#000" filter="url(#icon-a)" xlink:href="#icon-b"/>
    <use fill="url(#icon-c)" fill-rule="evenodd" xlink:href="#icon-b"/>
  </g>
</svg>
